<svg id="Layer_1" data-name="Layer 1" xmlns="http://www.w3.org/2000/svg" viewBox="0 0 200 200"><defs><style>.cls-1{fill:#6200ea;}.cls-2,.cls-3{fill:none;stroke:#6200ea;}.cls-2{stroke-linecap:round;stroke-linejoin:round;stroke-width:2px;}.cls-3{stroke-miterlimit:10;stroke-width:3px;}</style></defs><title>JC-logo-2020-outlined</title><path class="cls-1" d="M85.48,99.09V93.74A7.85,7.85,0,0,0,87.4,94c2.35,0,3.48-1.12,3.48-3.58V61.66h5.88V90.21c0,6.15-2.78,9.09-8.56,9.09A14,14,0,0,1,85.48,99.09Z"/><path class="cls-1" d="M102.61,128.4V108.29c0-5.77,3-9.19,8.66-9.19s8.67,3.42,8.67,9.19v4h-5.56v-4.33c0-2.46-1.18-3.47-2.94-3.47s-3,1-3,3.47v20.91c0,2.46,1.18,3.42,3,3.42s2.94-1,2.94-3.42v-5.72h5.56v5.29c0,5.77-3,9.19-8.67,9.19S102.61,134.17,102.61,128.4Z"/><line class="cls-2" x1="124.78" y1="75.22" x2="75.22" y2="124.78"/><circle class="cls-3" cx="100" cy="100" r="47.45"/></svg>