<svg id="Layer_1" data-name="Layer 1" xmlns="http://www.w3.org/2000/svg" viewBox="0 0 17.2 17.79"><defs><style>.cls-1{fill:#6200ea;}.cls-2,.cls-3{fill:none;stroke:#6200ea;}.cls-2{stroke-linecap:round;stroke-linejoin:round;stroke-width:0.34px;}.cls-3{stroke-miterlimit:10;stroke-width:0.51px;}</style></defs><title>JC-logo-2020-favicon</title><path class="cls-1" d="M6.15,8.74v-.9a1.24,1.24,0,0,0,.33,0c.39,0,.58-.19.58-.6V2.43h1V7.24c0,1-.46,1.54-1.44,1.54A2.38,2.38,0,0,1,6.15,8.74Z"/><path class="cls-1" d="M9,13.68V10.29A1.37,1.37,0,0,1,10.5,8.74,1.36,1.36,0,0,1,12,10.29V11H11v-.73c0-.42-.2-.59-.5-.59s-.51.17-.51.59v3.52c0,.42.2.58.51.58s.5-.17.5-.58v-1H12v.89a1.36,1.36,0,0,1-1.46,1.55A1.37,1.37,0,0,1,9,13.68Z"/><line class="cls-2" x1="12.78" y1="4.72" x2="4.42" y2="13.07"/><circle class="cls-3" cx="8.6" cy="8.89" r="8"/></svg>